<mxfile host="Electron" agent="Mozilla/5.0 (Windows NT 10.0; Win64; x64) AppleWebKit/537.36 (KHTML, like Gecko) draw.io/24.7.8 Chrome/128.0.6613.36 Electron/32.0.1 Safari/537.36" version="24.7.8">
  <diagram id="C5RBs43oDa-KdzZeNtuy" name="Page-1">
    <mxGraphModel dx="2114" dy="1497" grid="1" gridSize="10" guides="0" tooltips="1" connect="1" arrows="1" fold="1" page="0" pageScale="1" pageWidth="1654" pageHeight="1169" math="0" shadow="0">
      <root>
        <mxCell id="WIyWlLk6GJQsqaUBKTNV-0" />
        <mxCell id="WIyWlLk6GJQsqaUBKTNV-1" parent="WIyWlLk6GJQsqaUBKTNV-0" />
        <mxCell id="zkfFHV4jXpPFQw0GAbJ--0" value="Revision" style="swimlane;fontStyle=2;align=center;verticalAlign=top;childLayout=stackLayout;horizontal=1;startSize=26;horizontalStack=0;resizeParent=1;resizeLast=0;collapsible=1;marginBottom=0;rounded=0;shadow=0;strokeWidth=1;" parent="WIyWlLk6GJQsqaUBKTNV-1" vertex="1">
          <mxGeometry x="1600" y="586" width="230" height="912" as="geometry">
            <mxRectangle x="220" y="150" width="160" height="26" as="alternateBounds" />
          </mxGeometry>
        </mxCell>
        <mxCell id="zkfFHV4jXpPFQw0GAbJ--1" value="nroRevision" style="text;align=left;verticalAlign=top;spacingLeft=4;spacingRight=4;overflow=hidden;rotatable=0;points=[[0,0.5],[1,0.5]];portConstraint=eastwest;" parent="zkfFHV4jXpPFQw0GAbJ--0" vertex="1">
          <mxGeometry y="26" width="230" height="26" as="geometry" />
        </mxCell>
        <mxCell id="zkfFHV4jXpPFQw0GAbJ--2" value="vehiculo: Vehiculo" style="text;align=left;verticalAlign=top;spacingLeft=4;spacingRight=4;overflow=hidden;rotatable=0;points=[[0,0.5],[1,0.5]];portConstraint=eastwest;rounded=0;shadow=0;html=0;" parent="zkfFHV4jXpPFQw0GAbJ--0" vertex="1">
          <mxGeometry y="52" width="230" height="26" as="geometry" />
        </mxCell>
        <mxCell id="zkfFHV4jXpPFQw0GAbJ--3" value="fechaAlta" style="text;align=left;verticalAlign=top;spacingLeft=4;spacingRight=4;overflow=hidden;rotatable=0;points=[[0,0.5],[1,0.5]];portConstraint=eastwest;rounded=0;shadow=0;html=0;" parent="zkfFHV4jXpPFQw0GAbJ--0" vertex="1">
          <mxGeometry y="78" width="230" height="26" as="geometry" />
        </mxCell>
        <mxCell id="EqeIaTZIzVG1QX8MebLE-1" value="supervisor: Empleado" style="text;align=left;verticalAlign=top;spacingLeft=4;spacingRight=4;overflow=hidden;rotatable=0;points=[[0,0.5],[1,0.5]];portConstraint=eastwest;rounded=0;shadow=0;html=0;" vertex="1" parent="zkfFHV4jXpPFQw0GAbJ--0">
          <mxGeometry y="104" width="230" height="26" as="geometry" />
        </mxCell>
        <mxCell id="EqeIaTZIzVG1QX8MebLE-3" value="resultadoMedicion: ResultadoMedicion" style="text;align=left;verticalAlign=top;spacingLeft=4;spacingRight=4;overflow=hidden;rotatable=0;points=[[0,0.5],[1,0.5]];portConstraint=eastwest;rounded=0;shadow=0;html=0;" vertex="1" parent="zkfFHV4jXpPFQw0GAbJ--0">
          <mxGeometry y="130" width="230" height="26" as="geometry" />
        </mxCell>
        <mxCell id="EqeIaTZIzVG1QX8MebLE-4" value="defectosVisuales: DetalleDefectoVisual" style="text;align=left;verticalAlign=top;spacingLeft=4;spacingRight=4;overflow=hidden;rotatable=0;points=[[0,0.5],[1,0.5]];portConstraint=eastwest;rounded=0;shadow=0;html=0;" vertex="1" parent="zkfFHV4jXpPFQw0GAbJ--0">
          <mxGeometry y="156" width="230" height="26" as="geometry" />
        </mxCell>
        <mxCell id="EqeIaTZIzVG1QX8MebLE-2" value="resultado" style="text;align=left;verticalAlign=top;spacingLeft=4;spacingRight=4;overflow=hidden;rotatable=0;points=[[0,0.5],[1,0.5]];portConstraint=eastwest;rounded=0;shadow=0;html=0;" vertex="1" parent="zkfFHV4jXpPFQw0GAbJ--0">
          <mxGeometry y="182" width="230" height="26" as="geometry" />
        </mxCell>
        <mxCell id="EqeIaTZIzVG1QX8MebLE-6" value="nroOblea: Oblea" style="text;align=left;verticalAlign=top;spacingLeft=4;spacingRight=4;overflow=hidden;rotatable=0;points=[[0,0.5],[1,0.5]];portConstraint=eastwest;rounded=0;shadow=0;html=0;" vertex="1" parent="zkfFHV4jXpPFQw0GAbJ--0">
          <mxGeometry y="208" width="230" height="26" as="geometry" />
        </mxCell>
        <mxCell id="EqeIaTZIzVG1QX8MebLE-5" value="fechaVencimiento" style="text;align=left;verticalAlign=top;spacingLeft=4;spacingRight=4;overflow=hidden;rotatable=0;points=[[0,0.5],[1,0.5]];portConstraint=eastwest;rounded=0;shadow=0;html=0;" vertex="1" parent="zkfFHV4jXpPFQw0GAbJ--0">
          <mxGeometry y="234" width="230" height="26" as="geometry" />
        </mxCell>
        <mxCell id="zkfFHV4jXpPFQw0GAbJ--4" value="" style="line;html=1;strokeWidth=1;align=left;verticalAlign=middle;spacingTop=-1;spacingLeft=3;spacingRight=3;rotatable=0;labelPosition=right;points=[];portConstraint=eastwest;" parent="zkfFHV4jXpPFQw0GAbJ--0" vertex="1">
          <mxGeometry y="260" width="230" height="8" as="geometry" />
        </mxCell>
        <mxCell id="EqeIaTZIzVG1QX8MebLE-7" value="crear()" style="text;align=left;verticalAlign=top;spacingLeft=4;spacingRight=4;overflow=hidden;rotatable=0;points=[[0,0.5],[1,0.5]];portConstraint=eastwest;" vertex="1" parent="zkfFHV4jXpPFQw0GAbJ--0">
          <mxGeometry y="268" width="230" height="28" as="geometry" />
        </mxCell>
        <mxCell id="EqeIaTZIzVG1QX8MebLE-8" value="mostrar()" style="text;align=left;verticalAlign=top;spacingLeft=4;spacingRight=4;overflow=hidden;rotatable=0;points=[[0,0.5],[1,0.5]];portConstraint=eastwest;" vertex="1" parent="zkfFHV4jXpPFQw0GAbJ--0">
          <mxGeometry y="296" width="230" height="28" as="geometry" />
        </mxCell>
        <mxCell id="zkfFHV4jXpPFQw0GAbJ--5" value="tomar(nroRevision)" style="text;align=left;verticalAlign=top;spacingLeft=4;spacingRight=4;overflow=hidden;rotatable=0;points=[[0,0.5],[1,0.5]];portConstraint=eastwest;" parent="zkfFHV4jXpPFQw0GAbJ--0" vertex="1">
          <mxGeometry y="324" width="230" height="28" as="geometry" />
        </mxCell>
        <mxCell id="EqeIaTZIzVG1QX8MebLE-9" value="mostrar(nroRevision)" style="text;align=left;verticalAlign=top;spacingLeft=4;spacingRight=4;overflow=hidden;rotatable=0;points=[[0,0.5],[1,0.5]];portConstraint=eastwest;" vertex="1" parent="zkfFHV4jXpPFQw0GAbJ--0">
          <mxGeometry y="352" width="230" height="28" as="geometry" />
        </mxCell>
        <mxCell id="EqeIaTZIzVG1QX8MebLE-10" value="tomar(vehiculo)" style="text;align=left;verticalAlign=top;spacingLeft=4;spacingRight=4;overflow=hidden;rotatable=0;points=[[0,0.5],[1,0.5]];portConstraint=eastwest;" vertex="1" parent="zkfFHV4jXpPFQw0GAbJ--0">
          <mxGeometry y="380" width="230" height="28" as="geometry" />
        </mxCell>
        <mxCell id="EqeIaTZIzVG1QX8MebLE-11" value="mostrar(vehiculo)" style="text;align=left;verticalAlign=top;spacingLeft=4;spacingRight=4;overflow=hidden;rotatable=0;points=[[0,0.5],[1,0.5]];portConstraint=eastwest;" vertex="1" parent="zkfFHV4jXpPFQw0GAbJ--0">
          <mxGeometry y="408" width="230" height="28" as="geometry" />
        </mxCell>
        <mxCell id="EqeIaTZIzVG1QX8MebLE-13" value="tomar(fechaAlta)" style="text;align=left;verticalAlign=top;spacingLeft=4;spacingRight=4;overflow=hidden;rotatable=0;points=[[0,0.5],[1,0.5]];portConstraint=eastwest;" vertex="1" parent="zkfFHV4jXpPFQw0GAbJ--0">
          <mxGeometry y="436" width="230" height="28" as="geometry" />
        </mxCell>
        <mxCell id="EqeIaTZIzVG1QX8MebLE-12" value="mostrar(fechaAlta)" style="text;align=left;verticalAlign=top;spacingLeft=4;spacingRight=4;overflow=hidden;rotatable=0;points=[[0,0.5],[1,0.5]];portConstraint=eastwest;" vertex="1" parent="zkfFHV4jXpPFQw0GAbJ--0">
          <mxGeometry y="464" width="230" height="28" as="geometry" />
        </mxCell>
        <mxCell id="EqeIaTZIzVG1QX8MebLE-15" value="tomar(resultado)" style="text;align=left;verticalAlign=top;spacingLeft=4;spacingRight=4;overflow=hidden;rotatable=0;points=[[0,0.5],[1,0.5]];portConstraint=eastwest;" vertex="1" parent="zkfFHV4jXpPFQw0GAbJ--0">
          <mxGeometry y="492" width="230" height="28" as="geometry" />
        </mxCell>
        <mxCell id="EqeIaTZIzVG1QX8MebLE-14" value="mostrar(resultado)" style="text;align=left;verticalAlign=top;spacingLeft=4;spacingRight=4;overflow=hidden;rotatable=0;points=[[0,0.5],[1,0.5]];portConstraint=eastwest;" vertex="1" parent="zkfFHV4jXpPFQw0GAbJ--0">
          <mxGeometry y="520" width="230" height="28" as="geometry" />
        </mxCell>
        <mxCell id="EqeIaTZIzVG1QX8MebLE-16" value="tomar(nroOblea)" style="text;align=left;verticalAlign=top;spacingLeft=4;spacingRight=4;overflow=hidden;rotatable=0;points=[[0,0.5],[1,0.5]];portConstraint=eastwest;" vertex="1" parent="zkfFHV4jXpPFQw0GAbJ--0">
          <mxGeometry y="548" width="230" height="28" as="geometry" />
        </mxCell>
        <mxCell id="EqeIaTZIzVG1QX8MebLE-17" value="mostrar(nroOblea)" style="text;align=left;verticalAlign=top;spacingLeft=4;spacingRight=4;overflow=hidden;rotatable=0;points=[[0,0.5],[1,0.5]];portConstraint=eastwest;" vertex="1" parent="zkfFHV4jXpPFQw0GAbJ--0">
          <mxGeometry y="576" width="230" height="28" as="geometry" />
        </mxCell>
        <mxCell id="EqeIaTZIzVG1QX8MebLE-19" value="tomar(supervisor)" style="text;align=left;verticalAlign=top;spacingLeft=4;spacingRight=4;overflow=hidden;rotatable=0;points=[[0,0.5],[1,0.5]];portConstraint=eastwest;" vertex="1" parent="zkfFHV4jXpPFQw0GAbJ--0">
          <mxGeometry y="604" width="230" height="28" as="geometry" />
        </mxCell>
        <mxCell id="EqeIaTZIzVG1QX8MebLE-18" value="mostrar(supervisor)" style="text;align=left;verticalAlign=top;spacingLeft=4;spacingRight=4;overflow=hidden;rotatable=0;points=[[0,0.5],[1,0.5]];portConstraint=eastwest;" vertex="1" parent="zkfFHV4jXpPFQw0GAbJ--0">
          <mxGeometry y="632" width="230" height="28" as="geometry" />
        </mxCell>
        <mxCell id="EqeIaTZIzVG1QX8MebLE-21" value="tomar(resultadoMedicion)" style="text;align=left;verticalAlign=top;spacingLeft=4;spacingRight=4;overflow=hidden;rotatable=0;points=[[0,0.5],[1,0.5]];portConstraint=eastwest;" vertex="1" parent="zkfFHV4jXpPFQw0GAbJ--0">
          <mxGeometry y="660" width="230" height="28" as="geometry" />
        </mxCell>
        <mxCell id="EqeIaTZIzVG1QX8MebLE-20" value="mostrar(resultadoMedicion)" style="text;align=left;verticalAlign=top;spacingLeft=4;spacingRight=4;overflow=hidden;rotatable=0;points=[[0,0.5],[1,0.5]];portConstraint=eastwest;" vertex="1" parent="zkfFHV4jXpPFQw0GAbJ--0">
          <mxGeometry y="688" width="230" height="28" as="geometry" />
        </mxCell>
        <mxCell id="EqeIaTZIzVG1QX8MebLE-23" value="tomar(defectosVisuales)" style="text;align=left;verticalAlign=top;spacingLeft=4;spacingRight=4;overflow=hidden;rotatable=0;points=[[0,0.5],[1,0.5]];portConstraint=eastwest;" vertex="1" parent="zkfFHV4jXpPFQw0GAbJ--0">
          <mxGeometry y="716" width="230" height="28" as="geometry" />
        </mxCell>
        <mxCell id="EqeIaTZIzVG1QX8MebLE-22" value="mostrar(defectosVisuales)" style="text;align=left;verticalAlign=top;spacingLeft=4;spacingRight=4;overflow=hidden;rotatable=0;points=[[0,0.5],[1,0.5]];portConstraint=eastwest;" vertex="1" parent="zkfFHV4jXpPFQw0GAbJ--0">
          <mxGeometry y="744" width="230" height="28" as="geometry" />
        </mxCell>
        <mxCell id="EqeIaTZIzVG1QX8MebLE-24" value="conocerVehiculo()" style="text;align=left;verticalAlign=top;spacingLeft=4;spacingRight=4;overflow=hidden;rotatable=0;points=[[0,0.5],[1,0.5]];portConstraint=eastwest;" vertex="1" parent="zkfFHV4jXpPFQw0GAbJ--0">
          <mxGeometry y="772" width="230" height="28" as="geometry" />
        </mxCell>
        <mxCell id="EqeIaTZIzVG1QX8MebLE-25" value="conocerOblea()" style="text;align=left;verticalAlign=top;spacingLeft=4;spacingRight=4;overflow=hidden;rotatable=0;points=[[0,0.5],[1,0.5]];portConstraint=eastwest;" vertex="1" parent="zkfFHV4jXpPFQw0GAbJ--0">
          <mxGeometry y="800" width="230" height="28" as="geometry" />
        </mxCell>
        <mxCell id="EqeIaTZIzVG1QX8MebLE-27" value="conocerEmpleado()" style="text;align=left;verticalAlign=top;spacingLeft=4;spacingRight=4;overflow=hidden;rotatable=0;points=[[0,0.5],[1,0.5]];portConstraint=eastwest;" vertex="1" parent="zkfFHV4jXpPFQw0GAbJ--0">
          <mxGeometry y="828" width="230" height="28" as="geometry" />
        </mxCell>
        <mxCell id="EqeIaTZIzVG1QX8MebLE-28" value="conocerResultadoMedicion()" style="text;align=left;verticalAlign=top;spacingLeft=4;spacingRight=4;overflow=hidden;rotatable=0;points=[[0,0.5],[1,0.5]];portConstraint=eastwest;" vertex="1" parent="zkfFHV4jXpPFQw0GAbJ--0">
          <mxGeometry y="856" width="230" height="28" as="geometry" />
        </mxCell>
        <mxCell id="EqeIaTZIzVG1QX8MebLE-26" value="conocerDetalleDefectoVisual()" style="text;align=left;verticalAlign=top;spacingLeft=4;spacingRight=4;overflow=hidden;rotatable=0;points=[[0,0.5],[1,0.5]];portConstraint=eastwest;" vertex="1" parent="zkfFHV4jXpPFQw0GAbJ--0">
          <mxGeometry y="884" width="230" height="28" as="geometry" />
        </mxCell>
        <mxCell id="EqeIaTZIzVG1QX8MebLE-29" value="Los métodos de seteo aplicados en esta clase son aplicables a todo el modelo" style="shape=note;whiteSpace=wrap;html=1;backgroundOutline=1;darkOpacity=0.05;align=left;" vertex="1" parent="WIyWlLk6GJQsqaUBKTNV-1">
          <mxGeometry x="1790" y="466" width="150" height="70" as="geometry" />
        </mxCell>
        <mxCell id="EqeIaTZIzVG1QX8MebLE-30" value="" style="endArrow=none;dashed=1;html=1;rounded=0;entryX=0.5;entryY=1;entryDx=0;entryDy=0;entryPerimeter=0;exitX=0.75;exitY=0;exitDx=0;exitDy=0;" edge="1" parent="WIyWlLk6GJQsqaUBKTNV-1" source="zkfFHV4jXpPFQw0GAbJ--0" target="EqeIaTZIzVG1QX8MebLE-29">
          <mxGeometry width="50" height="50" relative="1" as="geometry">
            <mxPoint x="1850" y="586" as="sourcePoint" />
            <mxPoint x="1900" y="536" as="targetPoint" />
          </mxGeometry>
        </mxCell>
        <mxCell id="EqeIaTZIzVG1QX8MebLE-58" value="" style="edgeStyle=orthogonalEdgeStyle;rounded=0;orthogonalLoop=1;jettySize=auto;html=1;align=right;" edge="1" parent="WIyWlLk6GJQsqaUBKTNV-1" source="EqeIaTZIzVG1QX8MebLE-31" target="EqeIaTZIzVG1QX8MebLE-49">
          <mxGeometry relative="1" as="geometry">
            <mxPoint x="2260" y="1146" as="sourcePoint" />
            <mxPoint x="2400" y="1146" as="targetPoint" />
          </mxGeometry>
        </mxCell>
        <mxCell id="EqeIaTZIzVG1QX8MebLE-61" value="0..*" style="edgeLabel;html=1;align=center;verticalAlign=middle;resizable=0;points=[];labelBackgroundColor=none;" vertex="1" connectable="0" parent="EqeIaTZIzVG1QX8MebLE-58">
          <mxGeometry x="0.6739" y="-2" relative="1" as="geometry">
            <mxPoint x="3" y="4" as="offset" />
          </mxGeometry>
        </mxCell>
        <mxCell id="EqeIaTZIzVG1QX8MebLE-31" value="DetalleDefectoVisual" style="swimlane;fontStyle=1;align=center;verticalAlign=top;childLayout=stackLayout;horizontal=1;startSize=26;horizontalStack=0;resizeParent=1;resizeParentMax=0;resizeLast=0;collapsible=1;marginBottom=0;whiteSpace=wrap;html=1;" vertex="1" parent="WIyWlLk6GJQsqaUBKTNV-1">
          <mxGeometry x="2060" y="1068" width="180" height="216" as="geometry" />
        </mxCell>
        <mxCell id="EqeIaTZIzVG1QX8MebLE-32" value="+ defectoVisual: DefectoVisual" style="text;strokeColor=none;fillColor=none;align=left;verticalAlign=top;spacingLeft=4;spacingRight=4;overflow=hidden;rotatable=0;points=[[0,0.5],[1,0.5]];portConstraint=eastwest;whiteSpace=wrap;html=1;" vertex="1" parent="EqeIaTZIzVG1QX8MebLE-31">
          <mxGeometry y="26" width="180" height="26" as="geometry" />
        </mxCell>
        <mxCell id="EqeIaTZIzVG1QX8MebLE-35" value="+ inspector: Empleado" style="text;strokeColor=none;fillColor=none;align=left;verticalAlign=top;spacingLeft=4;spacingRight=4;overflow=hidden;rotatable=0;points=[[0,0.5],[1,0.5]];portConstraint=eastwest;whiteSpace=wrap;html=1;" vertex="1" parent="EqeIaTZIzVG1QX8MebLE-31">
          <mxGeometry y="52" width="180" height="26" as="geometry" />
        </mxCell>
        <mxCell id="EqeIaTZIzVG1QX8MebLE-36" value="+ calificacion" style="text;strokeColor=none;fillColor=none;align=left;verticalAlign=top;spacingLeft=4;spacingRight=4;overflow=hidden;rotatable=0;points=[[0,0.5],[1,0.5]];portConstraint=eastwest;whiteSpace=wrap;html=1;" vertex="1" parent="EqeIaTZIzVG1QX8MebLE-31">
          <mxGeometry y="78" width="180" height="26" as="geometry" />
        </mxCell>
        <mxCell id="EqeIaTZIzVG1QX8MebLE-33" value="" style="line;strokeWidth=1;fillColor=none;align=left;verticalAlign=middle;spacingTop=-1;spacingLeft=3;spacingRight=3;rotatable=0;labelPosition=right;points=[];portConstraint=eastwest;strokeColor=inherit;" vertex="1" parent="EqeIaTZIzVG1QX8MebLE-31">
          <mxGeometry y="104" width="180" height="8" as="geometry" />
        </mxCell>
        <mxCell id="EqeIaTZIzVG1QX8MebLE-37" value="+ crear()" style="text;strokeColor=none;fillColor=none;align=left;verticalAlign=top;spacingLeft=4;spacingRight=4;overflow=hidden;rotatable=0;points=[[0,0.5],[1,0.5]];portConstraint=eastwest;whiteSpace=wrap;html=1;" vertex="1" parent="EqeIaTZIzVG1QX8MebLE-31">
          <mxGeometry y="112" width="180" height="26" as="geometry" />
        </mxCell>
        <mxCell id="EqeIaTZIzVG1QX8MebLE-38" value="+ mostrar()" style="text;strokeColor=none;fillColor=none;align=left;verticalAlign=top;spacingLeft=4;spacingRight=4;overflow=hidden;rotatable=0;points=[[0,0.5],[1,0.5]];portConstraint=eastwest;whiteSpace=wrap;html=1;" vertex="1" parent="EqeIaTZIzVG1QX8MebLE-31">
          <mxGeometry y="138" width="180" height="26" as="geometry" />
        </mxCell>
        <mxCell id="EqeIaTZIzVG1QX8MebLE-39" value="+ conocerDefectoVisual()" style="text;strokeColor=none;fillColor=none;align=left;verticalAlign=top;spacingLeft=4;spacingRight=4;overflow=hidden;rotatable=0;points=[[0,0.5],[1,0.5]];portConstraint=eastwest;whiteSpace=wrap;html=1;" vertex="1" parent="EqeIaTZIzVG1QX8MebLE-31">
          <mxGeometry y="164" width="180" height="26" as="geometry" />
        </mxCell>
        <mxCell id="EqeIaTZIzVG1QX8MebLE-34" value="+ conocerEmpleado()" style="text;strokeColor=none;fillColor=none;align=left;verticalAlign=top;spacingLeft=4;spacingRight=4;overflow=hidden;rotatable=0;points=[[0,0.5],[1,0.5]];portConstraint=eastwest;whiteSpace=wrap;html=1;" vertex="1" parent="EqeIaTZIzVG1QX8MebLE-31">
          <mxGeometry y="190" width="180" height="26" as="geometry" />
        </mxCell>
        <mxCell id="EqeIaTZIzVG1QX8MebLE-49" value="DefectoVisual" style="swimlane;fontStyle=1;align=center;verticalAlign=top;childLayout=stackLayout;horizontal=1;startSize=26;horizontalStack=0;resizeParent=1;resizeParentMax=0;resizeLast=0;collapsible=1;marginBottom=0;whiteSpace=wrap;html=1;" vertex="1" parent="WIyWlLk6GJQsqaUBKTNV-1">
          <mxGeometry x="2380" y="1120" width="180" height="112" as="geometry" />
        </mxCell>
        <mxCell id="EqeIaTZIzVG1QX8MebLE-59" value="+ descripcion" style="text;strokeColor=none;fillColor=none;align=left;verticalAlign=top;spacingLeft=4;spacingRight=4;overflow=hidden;rotatable=0;points=[[0,0.5],[1,0.5]];portConstraint=eastwest;whiteSpace=wrap;html=1;" vertex="1" parent="EqeIaTZIzVG1QX8MebLE-49">
          <mxGeometry y="26" width="180" height="26" as="geometry" />
        </mxCell>
        <mxCell id="EqeIaTZIzVG1QX8MebLE-53" value="" style="line;strokeWidth=1;fillColor=none;align=left;verticalAlign=middle;spacingTop=-1;spacingLeft=3;spacingRight=3;rotatable=0;labelPosition=right;points=[];portConstraint=eastwest;strokeColor=inherit;" vertex="1" parent="EqeIaTZIzVG1QX8MebLE-49">
          <mxGeometry y="52" width="180" height="8" as="geometry" />
        </mxCell>
        <mxCell id="EqeIaTZIzVG1QX8MebLE-54" value="+ crear()" style="text;strokeColor=none;fillColor=none;align=left;verticalAlign=top;spacingLeft=4;spacingRight=4;overflow=hidden;rotatable=0;points=[[0,0.5],[1,0.5]];portConstraint=eastwest;whiteSpace=wrap;html=1;" vertex="1" parent="EqeIaTZIzVG1QX8MebLE-49">
          <mxGeometry y="60" width="180" height="26" as="geometry" />
        </mxCell>
        <mxCell id="EqeIaTZIzVG1QX8MebLE-55" value="+ mostrar()" style="text;strokeColor=none;fillColor=none;align=left;verticalAlign=top;spacingLeft=4;spacingRight=4;overflow=hidden;rotatable=0;points=[[0,0.5],[1,0.5]];portConstraint=eastwest;whiteSpace=wrap;html=1;" vertex="1" parent="EqeIaTZIzVG1QX8MebLE-49">
          <mxGeometry y="86" width="180" height="26" as="geometry" />
        </mxCell>
        <mxCell id="EqeIaTZIzVG1QX8MebLE-62" value="" style="edgeStyle=orthogonalEdgeStyle;rounded=0;orthogonalLoop=1;jettySize=auto;html=1;align=right;" edge="1" parent="WIyWlLk6GJQsqaUBKTNV-1" target="EqeIaTZIzVG1QX8MebLE-33">
          <mxGeometry relative="1" as="geometry">
            <mxPoint x="1830" y="896" as="sourcePoint" />
            <mxPoint x="1970" y="896" as="targetPoint" />
          </mxGeometry>
        </mxCell>
        <mxCell id="EqeIaTZIzVG1QX8MebLE-63" value="0..*" style="edgeLabel;html=1;align=center;verticalAlign=middle;resizable=0;points=[];labelBackgroundColor=none;" vertex="1" connectable="0" parent="EqeIaTZIzVG1QX8MebLE-62">
          <mxGeometry x="0.6739" y="-2" relative="1" as="geometry">
            <mxPoint x="3" y="4" as="offset" />
          </mxGeometry>
        </mxCell>
        <mxCell id="EqeIaTZIzVG1QX8MebLE-64" value="Calificaciones:&amp;nbsp;&lt;div&gt;&lt;ul&gt;&lt;li&gt;Leve.&lt;/li&gt;&lt;li style=&quot;&quot;&gt;Grave&lt;/li&gt;&lt;/ul&gt;&lt;/div&gt;" style="shape=note;whiteSpace=wrap;html=1;backgroundOutline=1;darkOpacity=0.05;align=left;" vertex="1" parent="WIyWlLk6GJQsqaUBKTNV-1">
          <mxGeometry x="2250" y="1366" width="120" height="68" as="geometry" />
        </mxCell>
        <mxCell id="EqeIaTZIzVG1QX8MebLE-65" value="" style="endArrow=none;dashed=1;html=1;rounded=0;" edge="1" parent="WIyWlLk6GJQsqaUBKTNV-1" source="EqeIaTZIzVG1QX8MebLE-31" target="EqeIaTZIzVG1QX8MebLE-64">
          <mxGeometry width="50" height="50" relative="1" as="geometry">
            <mxPoint x="2120" y="768" as="sourcePoint" />
            <mxPoint x="2170" y="718" as="targetPoint" />
          </mxGeometry>
        </mxCell>
        <mxCell id="EqeIaTZIzVG1QX8MebLE-66" value="DetalleOblea" style="swimlane;fontStyle=1;align=center;verticalAlign=top;childLayout=stackLayout;horizontal=1;startSize=26;horizontalStack=0;resizeParent=1;resizeParentMax=0;resizeLast=0;collapsible=1;marginBottom=0;whiteSpace=wrap;html=1;" vertex="1" parent="WIyWlLk6GJQsqaUBKTNV-1">
          <mxGeometry x="2020" y="726" width="160" height="190" as="geometry" />
        </mxCell>
        <mxCell id="EqeIaTZIzVG1QX8MebLE-72" value="+ fechaAlta" style="text;strokeColor=none;fillColor=none;align=left;verticalAlign=top;spacingLeft=4;spacingRight=4;overflow=hidden;rotatable=0;points=[[0,0.5],[1,0.5]];portConstraint=eastwest;whiteSpace=wrap;html=1;" vertex="1" parent="EqeIaTZIzVG1QX8MebLE-66">
          <mxGeometry y="26" width="160" height="26" as="geometry" />
        </mxCell>
        <mxCell id="EqeIaTZIzVG1QX8MebLE-67" value="+ horaAlta" style="text;strokeColor=none;fillColor=none;align=left;verticalAlign=top;spacingLeft=4;spacingRight=4;overflow=hidden;rotatable=0;points=[[0,0.5],[1,0.5]];portConstraint=eastwest;whiteSpace=wrap;html=1;" vertex="1" parent="EqeIaTZIzVG1QX8MebLE-66">
          <mxGeometry y="52" width="160" height="26" as="geometry" />
        </mxCell>
        <mxCell id="EqeIaTZIzVG1QX8MebLE-73" value="+ oblea: Oblea" style="text;strokeColor=none;fillColor=none;align=left;verticalAlign=top;spacingLeft=4;spacingRight=4;overflow=hidden;rotatable=0;points=[[0,0.5],[1,0.5]];portConstraint=eastwest;whiteSpace=wrap;html=1;" vertex="1" parent="EqeIaTZIzVG1QX8MebLE-66">
          <mxGeometry y="78" width="160" height="26" as="geometry" />
        </mxCell>
        <mxCell id="EqeIaTZIzVG1QX8MebLE-68" value="" style="line;strokeWidth=1;fillColor=none;align=left;verticalAlign=middle;spacingTop=-1;spacingLeft=3;spacingRight=3;rotatable=0;labelPosition=right;points=[];portConstraint=eastwest;strokeColor=inherit;" vertex="1" parent="EqeIaTZIzVG1QX8MebLE-66">
          <mxGeometry y="104" width="160" height="8" as="geometry" />
        </mxCell>
        <mxCell id="EqeIaTZIzVG1QX8MebLE-69" value="+ crear()" style="text;strokeColor=none;fillColor=none;align=left;verticalAlign=top;spacingLeft=4;spacingRight=4;overflow=hidden;rotatable=0;points=[[0,0.5],[1,0.5]];portConstraint=eastwest;whiteSpace=wrap;html=1;" vertex="1" parent="EqeIaTZIzVG1QX8MebLE-66">
          <mxGeometry y="112" width="160" height="26" as="geometry" />
        </mxCell>
        <mxCell id="EqeIaTZIzVG1QX8MebLE-74" value="+ mostrar()" style="text;strokeColor=none;fillColor=none;align=left;verticalAlign=top;spacingLeft=4;spacingRight=4;overflow=hidden;rotatable=0;points=[[0,0.5],[1,0.5]];portConstraint=eastwest;whiteSpace=wrap;html=1;" vertex="1" parent="EqeIaTZIzVG1QX8MebLE-66">
          <mxGeometry y="138" width="160" height="26" as="geometry" />
        </mxCell>
        <mxCell id="EqeIaTZIzVG1QX8MebLE-75" value="+ conocerOblea()" style="text;strokeColor=none;fillColor=none;align=left;verticalAlign=top;spacingLeft=4;spacingRight=4;overflow=hidden;rotatable=0;points=[[0,0.5],[1,0.5]];portConstraint=eastwest;whiteSpace=wrap;html=1;" vertex="1" parent="EqeIaTZIzVG1QX8MebLE-66">
          <mxGeometry y="164" width="160" height="26" as="geometry" />
        </mxCell>
        <mxCell id="EqeIaTZIzVG1QX8MebLE-70" value="" style="edgeStyle=orthogonalEdgeStyle;rounded=0;orthogonalLoop=1;jettySize=auto;html=1;align=right;entryX=0.012;entryY=0.587;entryDx=0;entryDy=0;entryPerimeter=0;exitX=1.002;exitY=0.241;exitDx=0;exitDy=0;exitPerimeter=0;" edge="1" parent="WIyWlLk6GJQsqaUBKTNV-1" source="EqeIaTZIzVG1QX8MebLE-12" target="EqeIaTZIzVG1QX8MebLE-68">
          <mxGeometry relative="1" as="geometry">
            <mxPoint x="1840" y="1146" as="sourcePoint" />
            <mxPoint x="1980" y="1126" as="targetPoint" />
          </mxGeometry>
        </mxCell>
        <mxCell id="EqeIaTZIzVG1QX8MebLE-71" value="0..*" style="edgeLabel;html=1;align=center;verticalAlign=middle;resizable=0;points=[];labelBackgroundColor=none;" vertex="1" connectable="0" parent="EqeIaTZIzVG1QX8MebLE-70">
          <mxGeometry x="0.6739" y="-2" relative="1" as="geometry">
            <mxPoint x="3" y="4" as="offset" />
          </mxGeometry>
        </mxCell>
        <mxCell id="EqeIaTZIzVG1QX8MebLE-76" value="" style="edgeStyle=orthogonalEdgeStyle;rounded=0;orthogonalLoop=1;jettySize=auto;html=1;align=right;entryX=0.003;entryY=0.486;entryDx=0;entryDy=0;entryPerimeter=0;exitX=0.986;exitY=0.47;exitDx=0;exitDy=0;exitPerimeter=0;" edge="1" parent="WIyWlLk6GJQsqaUBKTNV-1" source="EqeIaTZIzVG1QX8MebLE-68" target="EqeIaTZIzVG1QX8MebLE-80">
          <mxGeometry relative="1" as="geometry">
            <mxPoint x="2240" y="1226" as="sourcePoint" />
            <mxPoint x="2362" y="1226" as="targetPoint" />
          </mxGeometry>
        </mxCell>
        <mxCell id="EqeIaTZIzVG1QX8MebLE-77" value="0..*" style="edgeLabel;html=1;align=center;verticalAlign=middle;resizable=0;points=[];labelBackgroundColor=none;" vertex="1" connectable="0" parent="EqeIaTZIzVG1QX8MebLE-76">
          <mxGeometry x="0.6739" y="-2" relative="1" as="geometry">
            <mxPoint x="3" y="4" as="offset" />
          </mxGeometry>
        </mxCell>
        <mxCell id="EqeIaTZIzVG1QX8MebLE-78" value="Oblea" style="swimlane;fontStyle=1;align=center;verticalAlign=top;childLayout=stackLayout;horizontal=1;startSize=26;horizontalStack=0;resizeParent=1;resizeParentMax=0;resizeLast=0;collapsible=1;marginBottom=0;whiteSpace=wrap;html=1;" vertex="1" parent="WIyWlLk6GJQsqaUBKTNV-1">
          <mxGeometry x="2380" y="725.53" width="160" height="190" as="geometry" />
        </mxCell>
        <mxCell id="EqeIaTZIzVG1QX8MebLE-79" value="+ fechaDeActualizacion" style="text;strokeColor=none;fillColor=none;align=left;verticalAlign=top;spacingLeft=4;spacingRight=4;overflow=hidden;rotatable=0;points=[[0,0.5],[1,0.5]];portConstraint=eastwest;whiteSpace=wrap;html=1;" vertex="1" parent="EqeIaTZIzVG1QX8MebLE-78">
          <mxGeometry y="26" width="160" height="26" as="geometry" />
        </mxCell>
        <mxCell id="EqeIaTZIzVG1QX8MebLE-82" value="+ nroOblea" style="text;strokeColor=none;fillColor=none;align=left;verticalAlign=top;spacingLeft=4;spacingRight=4;overflow=hidden;rotatable=0;points=[[0,0.5],[1,0.5]];portConstraint=eastwest;whiteSpace=wrap;html=1;" vertex="1" parent="EqeIaTZIzVG1QX8MebLE-78">
          <mxGeometry y="52" width="160" height="26" as="geometry" />
        </mxCell>
        <mxCell id="EqeIaTZIzVG1QX8MebLE-83" value="+ estado" style="text;strokeColor=none;fillColor=none;align=left;verticalAlign=top;spacingLeft=4;spacingRight=4;overflow=hidden;rotatable=0;points=[[0,0.5],[1,0.5]];portConstraint=eastwest;whiteSpace=wrap;html=1;" vertex="1" parent="EqeIaTZIzVG1QX8MebLE-78">
          <mxGeometry y="78" width="160" height="26" as="geometry" />
        </mxCell>
        <mxCell id="EqeIaTZIzVG1QX8MebLE-80" value="" style="line;strokeWidth=1;fillColor=none;align=left;verticalAlign=middle;spacingTop=-1;spacingLeft=3;spacingRight=3;rotatable=0;labelPosition=right;points=[];portConstraint=eastwest;strokeColor=inherit;" vertex="1" parent="EqeIaTZIzVG1QX8MebLE-78">
          <mxGeometry y="104" width="160" height="8" as="geometry" />
        </mxCell>
        <mxCell id="EqeIaTZIzVG1QX8MebLE-81" value="+ crear()" style="text;strokeColor=none;fillColor=none;align=left;verticalAlign=top;spacingLeft=4;spacingRight=4;overflow=hidden;rotatable=0;points=[[0,0.5],[1,0.5]];portConstraint=eastwest;whiteSpace=wrap;html=1;" vertex="1" parent="EqeIaTZIzVG1QX8MebLE-78">
          <mxGeometry y="112" width="160" height="26" as="geometry" />
        </mxCell>
        <mxCell id="EqeIaTZIzVG1QX8MebLE-84" value="+ mostrar()" style="text;strokeColor=none;fillColor=none;align=left;verticalAlign=top;spacingLeft=4;spacingRight=4;overflow=hidden;rotatable=0;points=[[0,0.5],[1,0.5]];portConstraint=eastwest;whiteSpace=wrap;html=1;" vertex="1" parent="EqeIaTZIzVG1QX8MebLE-78">
          <mxGeometry y="138" width="160" height="26" as="geometry" />
        </mxCell>
        <mxCell id="EqeIaTZIzVG1QX8MebLE-85" value="+ actualizarEstado()" style="text;strokeColor=none;fillColor=none;align=left;verticalAlign=top;spacingLeft=4;spacingRight=4;overflow=hidden;rotatable=0;points=[[0,0.5],[1,0.5]];portConstraint=eastwest;whiteSpace=wrap;html=1;" vertex="1" parent="EqeIaTZIzVG1QX8MebLE-78">
          <mxGeometry y="164" width="160" height="26" as="geometry" />
        </mxCell>
        <mxCell id="EqeIaTZIzVG1QX8MebLE-86" value="Estados:&lt;div&gt;&lt;ul&gt;&lt;li&gt;stock&lt;/li&gt;&lt;li&gt;consumido&lt;/li&gt;&lt;li&gt;cancelada&lt;/li&gt;&lt;/ul&gt;&lt;/div&gt;" style="shape=note;whiteSpace=wrap;html=1;backgroundOutline=1;darkOpacity=0.05;align=left;verticalAlign=top;" vertex="1" parent="WIyWlLk6GJQsqaUBKTNV-1">
          <mxGeometry x="2580" y="586" width="120" height="80" as="geometry" />
        </mxCell>
        <mxCell id="EqeIaTZIzVG1QX8MebLE-87" value="" style="endArrow=none;dashed=1;html=1;rounded=0;exitX=1;exitY=0;exitDx=0;exitDy=0;entryX=0.5;entryY=1;entryDx=0;entryDy=0;entryPerimeter=0;" edge="1" parent="WIyWlLk6GJQsqaUBKTNV-1" source="EqeIaTZIzVG1QX8MebLE-78" target="EqeIaTZIzVG1QX8MebLE-86">
          <mxGeometry width="50" height="50" relative="1" as="geometry">
            <mxPoint x="2590" y="1256" as="sourcePoint" />
            <mxPoint x="2640" y="1206" as="targetPoint" />
          </mxGeometry>
        </mxCell>
        <mxCell id="EqeIaTZIzVG1QX8MebLE-88" value="ResultadoMedicion" style="swimlane;fontStyle=1;align=center;verticalAlign=top;childLayout=stackLayout;horizontal=1;startSize=26;horizontalStack=0;resizeParent=1;resizeParentMax=0;resizeLast=0;collapsible=1;marginBottom=0;whiteSpace=wrap;html=1;" vertex="1" parent="WIyWlLk6GJQsqaUBKTNV-1">
          <mxGeometry x="1620" y="1646" width="170" height="372" as="geometry" />
        </mxCell>
        <mxCell id="EqeIaTZIzVG1QX8MebLE-89" value="+ nroLinea" style="text;strokeColor=none;fillColor=none;align=left;verticalAlign=top;spacingLeft=4;spacingRight=4;overflow=hidden;rotatable=0;points=[[0,0.5],[1,0.5]];portConstraint=eastwest;whiteSpace=wrap;html=1;" vertex="1" parent="EqeIaTZIzVG1QX8MebLE-88">
          <mxGeometry y="26" width="170" height="26" as="geometry" />
        </mxCell>
        <mxCell id="EqeIaTZIzVG1QX8MebLE-93" value="+ seccion" style="text;strokeColor=none;fillColor=none;align=left;verticalAlign=top;spacingLeft=4;spacingRight=4;overflow=hidden;rotatable=0;points=[[0,0.5],[1,0.5]];portConstraint=eastwest;whiteSpace=wrap;html=1;" vertex="1" parent="EqeIaTZIzVG1QX8MebLE-88">
          <mxGeometry y="52" width="170" height="26" as="geometry" />
        </mxCell>
        <mxCell id="EqeIaTZIzVG1QX8MebLE-94" value="+ maquina" style="text;strokeColor=none;fillColor=none;align=left;verticalAlign=top;spacingLeft=4;spacingRight=4;overflow=hidden;rotatable=0;points=[[0,0.5],[1,0.5]];portConstraint=eastwest;whiteSpace=wrap;html=1;" vertex="1" parent="EqeIaTZIzVG1QX8MebLE-88">
          <mxGeometry y="78" width="170" height="26" as="geometry" />
        </mxCell>
        <mxCell id="EqeIaTZIzVG1QX8MebLE-95" value="+ prueba" style="text;strokeColor=none;fillColor=none;align=left;verticalAlign=top;spacingLeft=4;spacingRight=4;overflow=hidden;rotatable=0;points=[[0,0.5],[1,0.5]];portConstraint=eastwest;whiteSpace=wrap;html=1;" vertex="1" parent="EqeIaTZIzVG1QX8MebLE-88">
          <mxGeometry y="104" width="170" height="26" as="geometry" />
        </mxCell>
        <mxCell id="EqeIaTZIzVG1QX8MebLE-96" value="+ valor" style="text;strokeColor=none;fillColor=none;align=left;verticalAlign=top;spacingLeft=4;spacingRight=4;overflow=hidden;rotatable=0;points=[[0,0.5],[1,0.5]];portConstraint=eastwest;whiteSpace=wrap;html=1;" vertex="1" parent="EqeIaTZIzVG1QX8MebLE-88">
          <mxGeometry y="130" width="170" height="26" as="geometry" />
        </mxCell>
        <mxCell id="EqeIaTZIzVG1QX8MebLE-97" value="+ estado" style="text;strokeColor=none;fillColor=none;align=left;verticalAlign=top;spacingLeft=4;spacingRight=4;overflow=hidden;rotatable=0;points=[[0,0.5],[1,0.5]];portConstraint=eastwest;whiteSpace=wrap;html=1;" vertex="1" parent="EqeIaTZIzVG1QX8MebLE-88">
          <mxGeometry y="156" width="170" height="26" as="geometry" />
        </mxCell>
        <mxCell id="EqeIaTZIzVG1QX8MebLE-98" value="+ inspector: Empleado" style="text;strokeColor=none;fillColor=none;align=left;verticalAlign=top;spacingLeft=4;spacingRight=4;overflow=hidden;rotatable=0;points=[[0,0.5],[1,0.5]];portConstraint=eastwest;whiteSpace=wrap;html=1;" vertex="1" parent="EqeIaTZIzVG1QX8MebLE-88">
          <mxGeometry y="182" width="170" height="26" as="geometry" />
        </mxCell>
        <mxCell id="EqeIaTZIzVG1QX8MebLE-99" value="fechaVencimiento" style="text;strokeColor=none;fillColor=none;align=left;verticalAlign=top;spacingLeft=4;spacingRight=4;overflow=hidden;rotatable=0;points=[[0,0.5],[1,0.5]];portConstraint=eastwest;whiteSpace=wrap;html=1;" vertex="1" parent="EqeIaTZIzVG1QX8MebLE-88">
          <mxGeometry y="208" width="170" height="26" as="geometry" />
        </mxCell>
        <mxCell id="EqeIaTZIzVG1QX8MebLE-90" value="" style="line;strokeWidth=1;fillColor=none;align=left;verticalAlign=middle;spacingTop=-1;spacingLeft=3;spacingRight=3;rotatable=0;labelPosition=right;points=[];portConstraint=eastwest;strokeColor=inherit;" vertex="1" parent="EqeIaTZIzVG1QX8MebLE-88">
          <mxGeometry y="234" width="170" height="8" as="geometry" />
        </mxCell>
        <mxCell id="EqeIaTZIzVG1QX8MebLE-91" value="+ crear()" style="text;strokeColor=none;fillColor=none;align=left;verticalAlign=top;spacingLeft=4;spacingRight=4;overflow=hidden;rotatable=0;points=[[0,0.5],[1,0.5]];portConstraint=eastwest;whiteSpace=wrap;html=1;" vertex="1" parent="EqeIaTZIzVG1QX8MebLE-88">
          <mxGeometry y="242" width="170" height="26" as="geometry" />
        </mxCell>
        <mxCell id="EqeIaTZIzVG1QX8MebLE-100" value="+ mostrar()" style="text;strokeColor=none;fillColor=none;align=left;verticalAlign=top;spacingLeft=4;spacingRight=4;overflow=hidden;rotatable=0;points=[[0,0.5],[1,0.5]];portConstraint=eastwest;whiteSpace=wrap;html=1;" vertex="1" parent="EqeIaTZIzVG1QX8MebLE-88">
          <mxGeometry y="268" width="170" height="26" as="geometry" />
        </mxCell>
        <mxCell id="EqeIaTZIzVG1QX8MebLE-101" value="+ conocerEmpleado()" style="text;strokeColor=none;fillColor=none;align=left;verticalAlign=top;spacingLeft=4;spacingRight=4;overflow=hidden;rotatable=0;points=[[0,0.5],[1,0.5]];portConstraint=eastwest;whiteSpace=wrap;html=1;" vertex="1" parent="EqeIaTZIzVG1QX8MebLE-88">
          <mxGeometry y="294" width="170" height="26" as="geometry" />
        </mxCell>
        <mxCell id="EqeIaTZIzVG1QX8MebLE-103" value="+ calcularResultado()" style="text;strokeColor=none;fillColor=none;align=left;verticalAlign=top;spacingLeft=4;spacingRight=4;overflow=hidden;rotatable=0;points=[[0,0.5],[1,0.5]];portConstraint=eastwest;whiteSpace=wrap;html=1;" vertex="1" parent="EqeIaTZIzVG1QX8MebLE-88">
          <mxGeometry y="320" width="170" height="26" as="geometry" />
        </mxCell>
        <mxCell id="EqeIaTZIzVG1QX8MebLE-104" value="+ calcularFechaVencimiento()" style="text;strokeColor=none;fillColor=none;align=left;verticalAlign=top;spacingLeft=4;spacingRight=4;overflow=hidden;rotatable=0;points=[[0,0.5],[1,0.5]];portConstraint=eastwest;whiteSpace=wrap;html=1;" vertex="1" parent="EqeIaTZIzVG1QX8MebLE-88">
          <mxGeometry y="346" width="170" height="26" as="geometry" />
        </mxCell>
        <mxCell id="EqeIaTZIzVG1QX8MebLE-92" value="1..*" style="endArrow=open;html=1;endSize=12;startArrow=diamondThin;startSize=14;startFill=0;edgeStyle=orthogonalEdgeStyle;align=left;verticalAlign=bottom;rounded=0;entryX=0.5;entryY=0;entryDx=0;entryDy=0;exitX=0.456;exitY=1.021;exitDx=0;exitDy=0;exitPerimeter=0;" edge="1" parent="WIyWlLk6GJQsqaUBKTNV-1" source="EqeIaTZIzVG1QX8MebLE-26" target="EqeIaTZIzVG1QX8MebLE-88">
          <mxGeometry x="0.7288" relative="1" as="geometry">
            <mxPoint x="1700" y="1499" as="sourcePoint" />
            <mxPoint x="1715" y="1626" as="targetPoint" />
            <mxPoint as="offset" />
          </mxGeometry>
        </mxCell>
        <mxCell id="EqeIaTZIzVG1QX8MebLE-135" value="" style="edgeStyle=orthogonalEdgeStyle;rounded=0;orthogonalLoop=1;jettySize=auto;html=1;entryX=0.985;entryY=0.573;entryDx=0;entryDy=0;entryPerimeter=0;exitX=0.004;exitY=0.251;exitDx=0;exitDy=0;exitPerimeter=0;" edge="1" parent="WIyWlLk6GJQsqaUBKTNV-1" source="EqeIaTZIzVG1QX8MebLE-113" target="EqeIaTZIzVG1QX8MebLE-130">
          <mxGeometry relative="1" as="geometry" />
        </mxCell>
        <mxCell id="EqeIaTZIzVG1QX8MebLE-136" value="1..*" style="edgeLabel;html=1;align=center;verticalAlign=middle;resizable=0;points=[];labelBackgroundColor=none;" vertex="1" connectable="0" parent="EqeIaTZIzVG1QX8MebLE-135">
          <mxGeometry x="0.8727" y="1" relative="1" as="geometry">
            <mxPoint x="14" y="6" as="offset" />
          </mxGeometry>
        </mxCell>
        <mxCell id="EqeIaTZIzVG1QX8MebLE-105" value="Vehiculo" style="swimlane;fontStyle=1;align=center;verticalAlign=top;childLayout=stackLayout;horizontal=1;startSize=26;horizontalStack=0;resizeParent=1;resizeParentMax=0;resizeLast=0;collapsible=1;marginBottom=0;whiteSpace=wrap;html=1;" vertex="1" parent="WIyWlLk6GJQsqaUBKTNV-1">
          <mxGeometry x="1250" y="1006" width="160" height="320" as="geometry" />
        </mxCell>
        <mxCell id="EqeIaTZIzVG1QX8MebLE-106" value="+ cliente: Cliente" style="text;strokeColor=none;fillColor=none;align=left;verticalAlign=top;spacingLeft=4;spacingRight=4;overflow=hidden;rotatable=0;points=[[0,0.5],[1,0.5]];portConstraint=eastwest;whiteSpace=wrap;html=1;" vertex="1" parent="EqeIaTZIzVG1QX8MebLE-105">
          <mxGeometry y="26" width="160" height="26" as="geometry" />
        </mxCell>
        <mxCell id="EqeIaTZIzVG1QX8MebLE-109" value="+ patente" style="text;strokeColor=none;fillColor=none;align=left;verticalAlign=top;spacingLeft=4;spacingRight=4;overflow=hidden;rotatable=0;points=[[0,0.5],[1,0.5]];portConstraint=eastwest;whiteSpace=wrap;html=1;" vertex="1" parent="EqeIaTZIzVG1QX8MebLE-105">
          <mxGeometry y="52" width="160" height="26" as="geometry" />
        </mxCell>
        <mxCell id="EqeIaTZIzVG1QX8MebLE-110" value="+ marca" style="text;strokeColor=none;fillColor=none;align=left;verticalAlign=top;spacingLeft=4;spacingRight=4;overflow=hidden;rotatable=0;points=[[0,0.5],[1,0.5]];portConstraint=eastwest;whiteSpace=wrap;html=1;" vertex="1" parent="EqeIaTZIzVG1QX8MebLE-105">
          <mxGeometry y="78" width="160" height="26" as="geometry" />
        </mxCell>
        <mxCell id="EqeIaTZIzVG1QX8MebLE-111" value="+ tipoVehiculo: TipoVehiculo" style="text;strokeColor=none;fillColor=none;align=left;verticalAlign=top;spacingLeft=4;spacingRight=4;overflow=hidden;rotatable=0;points=[[0,0.5],[1,0.5]];portConstraint=eastwest;whiteSpace=wrap;html=1;" vertex="1" parent="EqeIaTZIzVG1QX8MebLE-105">
          <mxGeometry y="104" width="160" height="26" as="geometry" />
        </mxCell>
        <mxCell id="EqeIaTZIzVG1QX8MebLE-112" value="+ añoFabricacion" style="text;strokeColor=none;fillColor=none;align=left;verticalAlign=top;spacingLeft=4;spacingRight=4;overflow=hidden;rotatable=0;points=[[0,0.5],[1,0.5]];portConstraint=eastwest;whiteSpace=wrap;html=1;" vertex="1" parent="EqeIaTZIzVG1QX8MebLE-105">
          <mxGeometry y="130" width="160" height="26" as="geometry" />
        </mxCell>
        <mxCell id="EqeIaTZIzVG1QX8MebLE-113" value="+ nroMotor" style="text;strokeColor=none;fillColor=none;align=left;verticalAlign=top;spacingLeft=4;spacingRight=4;overflow=hidden;rotatable=0;points=[[0,0.5],[1,0.5]];portConstraint=eastwest;whiteSpace=wrap;html=1;" vertex="1" parent="EqeIaTZIzVG1QX8MebLE-105">
          <mxGeometry y="156" width="160" height="26" as="geometry" />
        </mxCell>
        <mxCell id="EqeIaTZIzVG1QX8MebLE-114" value="+ nroChasis" style="text;strokeColor=none;fillColor=none;align=left;verticalAlign=top;spacingLeft=4;spacingRight=4;overflow=hidden;rotatable=0;points=[[0,0.5],[1,0.5]];portConstraint=eastwest;whiteSpace=wrap;html=1;" vertex="1" parent="EqeIaTZIzVG1QX8MebLE-105">
          <mxGeometry y="182" width="160" height="26" as="geometry" />
        </mxCell>
        <mxCell id="EqeIaTZIzVG1QX8MebLE-107" value="" style="line;strokeWidth=1;fillColor=none;align=left;verticalAlign=middle;spacingTop=-1;spacingLeft=3;spacingRight=3;rotatable=0;labelPosition=right;points=[];portConstraint=eastwest;strokeColor=inherit;" vertex="1" parent="EqeIaTZIzVG1QX8MebLE-105">
          <mxGeometry y="208" width="160" height="8" as="geometry" />
        </mxCell>
        <mxCell id="EqeIaTZIzVG1QX8MebLE-108" value="+ crear()" style="text;strokeColor=none;fillColor=none;align=left;verticalAlign=top;spacingLeft=4;spacingRight=4;overflow=hidden;rotatable=0;points=[[0,0.5],[1,0.5]];portConstraint=eastwest;whiteSpace=wrap;html=1;" vertex="1" parent="EqeIaTZIzVG1QX8MebLE-105">
          <mxGeometry y="216" width="160" height="26" as="geometry" />
        </mxCell>
        <mxCell id="EqeIaTZIzVG1QX8MebLE-116" value="+ mostrar()" style="text;strokeColor=none;fillColor=none;align=left;verticalAlign=top;spacingLeft=4;spacingRight=4;overflow=hidden;rotatable=0;points=[[0,0.5],[1,0.5]];portConstraint=eastwest;whiteSpace=wrap;html=1;" vertex="1" parent="EqeIaTZIzVG1QX8MebLE-105">
          <mxGeometry y="242" width="160" height="26" as="geometry" />
        </mxCell>
        <mxCell id="EqeIaTZIzVG1QX8MebLE-117" value="+ conocerTipoVehiculo()" style="text;strokeColor=none;fillColor=none;align=left;verticalAlign=top;spacingLeft=4;spacingRight=4;overflow=hidden;rotatable=0;points=[[0,0.5],[1,0.5]];portConstraint=eastwest;whiteSpace=wrap;html=1;" vertex="1" parent="EqeIaTZIzVG1QX8MebLE-105">
          <mxGeometry y="268" width="160" height="26" as="geometry" />
        </mxCell>
        <mxCell id="EqeIaTZIzVG1QX8MebLE-119" value="+ conocerCliente()" style="text;strokeColor=none;fillColor=none;align=left;verticalAlign=top;spacingLeft=4;spacingRight=4;overflow=hidden;rotatable=0;points=[[0,0.5],[1,0.5]];portConstraint=eastwest;whiteSpace=wrap;html=1;" vertex="1" parent="EqeIaTZIzVG1QX8MebLE-105">
          <mxGeometry y="294" width="160" height="26" as="geometry" />
        </mxCell>
        <mxCell id="EqeIaTZIzVG1QX8MebLE-120" value="" style="edgeStyle=orthogonalEdgeStyle;rounded=0;orthogonalLoop=1;jettySize=auto;html=1;align=right;exitX=0;exitY=0.5;exitDx=0;exitDy=0;entryX=1.001;entryY=0.563;entryDx=0;entryDy=0;entryPerimeter=0;" edge="1" parent="WIyWlLk6GJQsqaUBKTNV-1" source="EqeIaTZIzVG1QX8MebLE-17" target="EqeIaTZIzVG1QX8MebLE-113">
          <mxGeometry relative="1" as="geometry">
            <mxPoint x="1290" y="1416" as="sourcePoint" />
            <mxPoint x="1530" y="1236" as="targetPoint" />
          </mxGeometry>
        </mxCell>
        <mxCell id="EqeIaTZIzVG1QX8MebLE-121" value="1" style="edgeLabel;html=1;align=center;verticalAlign=middle;resizable=0;points=[];labelBackgroundColor=none;" vertex="1" connectable="0" parent="EqeIaTZIzVG1QX8MebLE-120">
          <mxGeometry x="0.6739" y="-2" relative="1" as="geometry">
            <mxPoint x="-6" y="10" as="offset" />
          </mxGeometry>
        </mxCell>
        <mxCell id="EqeIaTZIzVG1QX8MebLE-122" value="Cliente" style="swimlane;fontStyle=1;align=center;verticalAlign=top;childLayout=stackLayout;horizontal=1;startSize=26;horizontalStack=0;resizeParent=1;resizeParentMax=0;resizeLast=0;collapsible=1;marginBottom=0;whiteSpace=wrap;html=1;" vertex="1" parent="WIyWlLk6GJQsqaUBKTNV-1">
          <mxGeometry x="960" y="516" width="160" height="138" as="geometry" />
        </mxCell>
        <mxCell id="EqeIaTZIzVG1QX8MebLE-123" value="+ idCliente" style="text;strokeColor=none;fillColor=none;align=left;verticalAlign=top;spacingLeft=4;spacingRight=4;overflow=hidden;rotatable=0;points=[[0,0.5],[1,0.5]];portConstraint=eastwest;whiteSpace=wrap;html=1;" vertex="1" parent="EqeIaTZIzVG1QX8MebLE-122">
          <mxGeometry y="26" width="160" height="26" as="geometry" />
        </mxCell>
        <mxCell id="EqeIaTZIzVG1QX8MebLE-124" value="+ cuil" style="text;strokeColor=none;fillColor=none;align=left;verticalAlign=top;spacingLeft=4;spacingRight=4;overflow=hidden;rotatable=0;points=[[0,0.5],[1,0.5]];portConstraint=eastwest;whiteSpace=wrap;html=1;" vertex="1" parent="EqeIaTZIzVG1QX8MebLE-122">
          <mxGeometry y="52" width="160" height="26" as="geometry" />
        </mxCell>
        <mxCell id="EqeIaTZIzVG1QX8MebLE-130" value="" style="line;strokeWidth=1;fillColor=none;align=left;verticalAlign=middle;spacingTop=-1;spacingLeft=3;spacingRight=3;rotatable=0;labelPosition=right;points=[];portConstraint=eastwest;strokeColor=inherit;" vertex="1" parent="EqeIaTZIzVG1QX8MebLE-122">
          <mxGeometry y="78" width="160" height="8" as="geometry" />
        </mxCell>
        <mxCell id="EqeIaTZIzVG1QX8MebLE-131" value="+ crear()" style="text;strokeColor=none;fillColor=none;align=left;verticalAlign=top;spacingLeft=4;spacingRight=4;overflow=hidden;rotatable=0;points=[[0,0.5],[1,0.5]];portConstraint=eastwest;whiteSpace=wrap;html=1;" vertex="1" parent="EqeIaTZIzVG1QX8MebLE-122">
          <mxGeometry y="86" width="160" height="26" as="geometry" />
        </mxCell>
        <mxCell id="EqeIaTZIzVG1QX8MebLE-132" value="+ mostrar()" style="text;strokeColor=none;fillColor=none;align=left;verticalAlign=top;spacingLeft=4;spacingRight=4;overflow=hidden;rotatable=0;points=[[0,0.5],[1,0.5]];portConstraint=eastwest;whiteSpace=wrap;html=1;" vertex="1" parent="EqeIaTZIzVG1QX8MebLE-122">
          <mxGeometry y="112" width="160" height="26" as="geometry" />
        </mxCell>
        <mxCell id="EqeIaTZIzVG1QX8MebLE-137" value="Persona" style="swimlane;fontStyle=1;align=center;verticalAlign=top;childLayout=stackLayout;horizontal=1;startSize=26;horizontalStack=0;resizeParent=1;resizeParentMax=0;resizeLast=0;collapsible=1;marginBottom=0;whiteSpace=wrap;html=1;" vertex="1" parent="WIyWlLk6GJQsqaUBKTNV-1">
          <mxGeometry x="660" y="712" width="160" height="294" as="geometry" />
        </mxCell>
        <mxCell id="EqeIaTZIzVG1QX8MebLE-138" value="+ nombre" style="text;strokeColor=none;fillColor=none;align=left;verticalAlign=top;spacingLeft=4;spacingRight=4;overflow=hidden;rotatable=0;points=[[0,0.5],[1,0.5]];portConstraint=eastwest;whiteSpace=wrap;html=1;" vertex="1" parent="EqeIaTZIzVG1QX8MebLE-137">
          <mxGeometry y="26" width="160" height="26" as="geometry" />
        </mxCell>
        <mxCell id="EqeIaTZIzVG1QX8MebLE-142" value="+ apellido" style="text;strokeColor=none;fillColor=none;align=left;verticalAlign=top;spacingLeft=4;spacingRight=4;overflow=hidden;rotatable=0;points=[[0,0.5],[1,0.5]];portConstraint=eastwest;whiteSpace=wrap;html=1;" vertex="1" parent="EqeIaTZIzVG1QX8MebLE-137">
          <mxGeometry y="52" width="160" height="26" as="geometry" />
        </mxCell>
        <mxCell id="EqeIaTZIzVG1QX8MebLE-155" value="+ tipoDocumento" style="text;strokeColor=none;fillColor=none;align=left;verticalAlign=top;spacingLeft=4;spacingRight=4;overflow=hidden;rotatable=0;points=[[0,0.5],[1,0.5]];portConstraint=eastwest;whiteSpace=wrap;html=1;" vertex="1" parent="EqeIaTZIzVG1QX8MebLE-137">
          <mxGeometry y="78" width="160" height="26" as="geometry" />
        </mxCell>
        <mxCell id="EqeIaTZIzVG1QX8MebLE-143" value="+ dni" style="text;strokeColor=none;fillColor=none;align=left;verticalAlign=top;spacingLeft=4;spacingRight=4;overflow=hidden;rotatable=0;points=[[0,0.5],[1,0.5]];portConstraint=eastwest;whiteSpace=wrap;html=1;" vertex="1" parent="EqeIaTZIzVG1QX8MebLE-137">
          <mxGeometry y="104" width="160" height="26" as="geometry" />
        </mxCell>
        <mxCell id="EqeIaTZIzVG1QX8MebLE-144" value="+ telefono" style="text;strokeColor=none;fillColor=none;align=left;verticalAlign=top;spacingLeft=4;spacingRight=4;overflow=hidden;rotatable=0;points=[[0,0.5],[1,0.5]];portConstraint=eastwest;whiteSpace=wrap;html=1;" vertex="1" parent="EqeIaTZIzVG1QX8MebLE-137">
          <mxGeometry y="130" width="160" height="26" as="geometry" />
        </mxCell>
        <mxCell id="EqeIaTZIzVG1QX8MebLE-151" value="+ correo" style="text;strokeColor=none;fillColor=none;align=left;verticalAlign=top;spacingLeft=4;spacingRight=4;overflow=hidden;rotatable=0;points=[[0,0.5],[1,0.5]];portConstraint=eastwest;whiteSpace=wrap;html=1;" vertex="1" parent="EqeIaTZIzVG1QX8MebLE-137">
          <mxGeometry y="156" width="160" height="26" as="geometry" />
        </mxCell>
        <mxCell id="EqeIaTZIzVG1QX8MebLE-153" value="+ domicilio" style="text;strokeColor=none;fillColor=none;align=left;verticalAlign=top;spacingLeft=4;spacingRight=4;overflow=hidden;rotatable=0;points=[[0,0.5],[1,0.5]];portConstraint=eastwest;whiteSpace=wrap;html=1;" vertex="1" parent="EqeIaTZIzVG1QX8MebLE-137">
          <mxGeometry y="182" width="160" height="26" as="geometry" />
        </mxCell>
        <mxCell id="EqeIaTZIzVG1QX8MebLE-147" value="+ cuil" style="text;strokeColor=none;fillColor=none;align=left;verticalAlign=top;spacingLeft=4;spacingRight=4;overflow=hidden;rotatable=0;points=[[0,0.5],[1,0.5]];portConstraint=eastwest;whiteSpace=wrap;html=1;" vertex="1" parent="EqeIaTZIzVG1QX8MebLE-137">
          <mxGeometry y="208" width="160" height="26" as="geometry" />
        </mxCell>
        <mxCell id="EqeIaTZIzVG1QX8MebLE-139" value="" style="line;strokeWidth=1;fillColor=none;align=left;verticalAlign=middle;spacingTop=-1;spacingLeft=3;spacingRight=3;rotatable=0;labelPosition=right;points=[];portConstraint=eastwest;strokeColor=inherit;" vertex="1" parent="EqeIaTZIzVG1QX8MebLE-137">
          <mxGeometry y="234" width="160" height="8" as="geometry" />
        </mxCell>
        <mxCell id="EqeIaTZIzVG1QX8MebLE-140" value="+ crear()" style="text;strokeColor=none;fillColor=none;align=left;verticalAlign=top;spacingLeft=4;spacingRight=4;overflow=hidden;rotatable=0;points=[[0,0.5],[1,0.5]];portConstraint=eastwest;whiteSpace=wrap;html=1;" vertex="1" parent="EqeIaTZIzVG1QX8MebLE-137">
          <mxGeometry y="242" width="160" height="26" as="geometry" />
        </mxCell>
        <mxCell id="EqeIaTZIzVG1QX8MebLE-156" value="+ mostrar()" style="text;strokeColor=none;fillColor=none;align=left;verticalAlign=top;spacingLeft=4;spacingRight=4;overflow=hidden;rotatable=0;points=[[0,0.5],[1,0.5]];portConstraint=eastwest;whiteSpace=wrap;html=1;" vertex="1" parent="EqeIaTZIzVG1QX8MebLE-137">
          <mxGeometry y="268" width="160" height="26" as="geometry" />
        </mxCell>
        <mxCell id="EqeIaTZIzVG1QX8MebLE-141" value="" style="endArrow=block;endSize=16;endFill=0;html=1;rounded=0;edgeStyle=orthogonalEdgeStyle;entryX=0.5;entryY=1;entryDx=0;entryDy=0;" edge="1" parent="WIyWlLk6GJQsqaUBKTNV-1" source="EqeIaTZIzVG1QX8MebLE-157" target="EqeIaTZIzVG1QX8MebLE-137">
          <mxGeometry width="160" relative="1" as="geometry">
            <mxPoint x="950" y="986" as="sourcePoint" />
            <mxPoint x="739" y="1146" as="targetPoint" />
          </mxGeometry>
        </mxCell>
        <mxCell id="EqeIaTZIzVG1QX8MebLE-157" value="Empleado" style="swimlane;fontStyle=1;align=center;verticalAlign=top;childLayout=stackLayout;horizontal=1;startSize=26;horizontalStack=0;resizeParent=1;resizeParentMax=0;resizeLast=0;collapsible=1;marginBottom=0;whiteSpace=wrap;html=1;" vertex="1" parent="WIyWlLk6GJQsqaUBKTNV-1">
          <mxGeometry x="930" y="1076" width="160" height="112" as="geometry" />
        </mxCell>
        <mxCell id="EqeIaTZIzVG1QX8MebLE-158" value="+ nroLegajo" style="text;strokeColor=none;fillColor=none;align=left;verticalAlign=top;spacingLeft=4;spacingRight=4;overflow=hidden;rotatable=0;points=[[0,0.5],[1,0.5]];portConstraint=eastwest;whiteSpace=wrap;html=1;" vertex="1" parent="EqeIaTZIzVG1QX8MebLE-157">
          <mxGeometry y="26" width="160" height="26" as="geometry" />
        </mxCell>
        <mxCell id="EqeIaTZIzVG1QX8MebLE-161" value="+ rol" style="text;strokeColor=none;fillColor=none;align=left;verticalAlign=top;spacingLeft=4;spacingRight=4;overflow=hidden;rotatable=0;points=[[0,0.5],[1,0.5]];portConstraint=eastwest;whiteSpace=wrap;html=1;" vertex="1" parent="EqeIaTZIzVG1QX8MebLE-157">
          <mxGeometry y="52" width="160" height="26" as="geometry" />
        </mxCell>
        <mxCell id="EqeIaTZIzVG1QX8MebLE-159" value="" style="line;strokeWidth=1;fillColor=none;align=left;verticalAlign=middle;spacingTop=-1;spacingLeft=3;spacingRight=3;rotatable=0;labelPosition=right;points=[];portConstraint=eastwest;strokeColor=inherit;" vertex="1" parent="EqeIaTZIzVG1QX8MebLE-157">
          <mxGeometry y="78" width="160" height="8" as="geometry" />
        </mxCell>
        <mxCell id="EqeIaTZIzVG1QX8MebLE-160" value="+ method(type): type" style="text;strokeColor=none;fillColor=none;align=left;verticalAlign=top;spacingLeft=4;spacingRight=4;overflow=hidden;rotatable=0;points=[[0,0.5],[1,0.5]];portConstraint=eastwest;whiteSpace=wrap;html=1;" vertex="1" parent="EqeIaTZIzVG1QX8MebLE-157">
          <mxGeometry y="86" width="160" height="26" as="geometry" />
        </mxCell>
        <mxCell id="EqeIaTZIzVG1QX8MebLE-163" value="" style="endArrow=block;endSize=16;endFill=0;html=1;rounded=0;entryX=0.5;entryY=0;entryDx=0;entryDy=0;edgeStyle=orthogonalEdgeStyle;" edge="1" parent="WIyWlLk6GJQsqaUBKTNV-1" source="EqeIaTZIzVG1QX8MebLE-122">
          <mxGeometry width="160" relative="1" as="geometry">
            <mxPoint x="950" y="597" as="sourcePoint" />
            <mxPoint x="738.08" y="712" as="targetPoint" />
          </mxGeometry>
        </mxCell>
        <mxCell id="EqeIaTZIzVG1QX8MebLE-164" value="TipoVehiculo" style="swimlane;fontStyle=1;align=center;verticalAlign=top;childLayout=stackLayout;horizontal=1;startSize=26;horizontalStack=0;resizeParent=1;resizeParentMax=0;resizeLast=0;collapsible=1;marginBottom=0;whiteSpace=wrap;html=1;" vertex="1" parent="WIyWlLk6GJQsqaUBKTNV-1">
          <mxGeometry x="1250" y="696" width="160" height="190" as="geometry" />
        </mxCell>
        <mxCell id="EqeIaTZIzVG1QX8MebLE-165" value="+ cantEjes" style="text;strokeColor=none;fillColor=none;align=left;verticalAlign=top;spacingLeft=4;spacingRight=4;overflow=hidden;rotatable=0;points=[[0,0.5],[1,0.5]];portConstraint=eastwest;whiteSpace=wrap;html=1;" vertex="1" parent="EqeIaTZIzVG1QX8MebLE-164">
          <mxGeometry y="26" width="160" height="26" as="geometry" />
        </mxCell>
        <mxCell id="EqeIaTZIzVG1QX8MebLE-171" value="+ tipo" style="text;strokeColor=none;fillColor=none;align=left;verticalAlign=top;spacingLeft=4;spacingRight=4;overflow=hidden;rotatable=0;points=[[0,0.5],[1,0.5]];portConstraint=eastwest;whiteSpace=wrap;html=1;" vertex="1" parent="EqeIaTZIzVG1QX8MebLE-164">
          <mxGeometry y="52" width="160" height="26" as="geometry" />
        </mxCell>
        <mxCell id="EqeIaTZIzVG1QX8MebLE-172" value="+ tarifa" style="text;strokeColor=none;fillColor=none;align=left;verticalAlign=top;spacingLeft=4;spacingRight=4;overflow=hidden;rotatable=0;points=[[0,0.5],[1,0.5]];portConstraint=eastwest;whiteSpace=wrap;html=1;" vertex="1" parent="EqeIaTZIzVG1QX8MebLE-164">
          <mxGeometry y="78" width="160" height="26" as="geometry" />
        </mxCell>
        <mxCell id="EqeIaTZIzVG1QX8MebLE-166" value="" style="line;strokeWidth=1;fillColor=none;align=left;verticalAlign=middle;spacingTop=-1;spacingLeft=3;spacingRight=3;rotatable=0;labelPosition=right;points=[];portConstraint=eastwest;strokeColor=inherit;" vertex="1" parent="EqeIaTZIzVG1QX8MebLE-164">
          <mxGeometry y="104" width="160" height="8" as="geometry" />
        </mxCell>
        <mxCell id="EqeIaTZIzVG1QX8MebLE-167" value="+ crear()" style="text;strokeColor=none;fillColor=none;align=left;verticalAlign=top;spacingLeft=4;spacingRight=4;overflow=hidden;rotatable=0;points=[[0,0.5],[1,0.5]];portConstraint=eastwest;whiteSpace=wrap;html=1;" vertex="1" parent="EqeIaTZIzVG1QX8MebLE-164">
          <mxGeometry y="112" width="160" height="26" as="geometry" />
        </mxCell>
        <mxCell id="EqeIaTZIzVG1QX8MebLE-174" value="+ mostrar()" style="text;strokeColor=none;fillColor=none;align=left;verticalAlign=top;spacingLeft=4;spacingRight=4;overflow=hidden;rotatable=0;points=[[0,0.5],[1,0.5]];portConstraint=eastwest;whiteSpace=wrap;html=1;" vertex="1" parent="EqeIaTZIzVG1QX8MebLE-164">
          <mxGeometry y="138" width="160" height="26" as="geometry" />
        </mxCell>
        <mxCell id="EqeIaTZIzVG1QX8MebLE-175" value="+ actualizarTarifa()" style="text;strokeColor=none;fillColor=none;align=left;verticalAlign=top;spacingLeft=4;spacingRight=4;overflow=hidden;rotatable=0;points=[[0,0.5],[1,0.5]];portConstraint=eastwest;whiteSpace=wrap;html=1;" vertex="1" parent="EqeIaTZIzVG1QX8MebLE-164">
          <mxGeometry y="164" width="160" height="26" as="geometry" />
        </mxCell>
        <mxCell id="EqeIaTZIzVG1QX8MebLE-169" value="" style="edgeStyle=orthogonalEdgeStyle;rounded=0;orthogonalLoop=1;jettySize=auto;html=1;align=right;" edge="1" parent="WIyWlLk6GJQsqaUBKTNV-1" source="EqeIaTZIzVG1QX8MebLE-88" target="EqeIaTZIzVG1QX8MebLE-157">
          <mxGeometry relative="1" as="geometry">
            <mxPoint x="1540" y="1676" as="sourcePoint" />
            <mxPoint x="1350" y="1677" as="targetPoint" />
          </mxGeometry>
        </mxCell>
        <mxCell id="EqeIaTZIzVG1QX8MebLE-170" value="1" style="edgeLabel;html=1;align=center;verticalAlign=middle;resizable=0;points=[];labelBackgroundColor=none;" vertex="1" connectable="0" parent="EqeIaTZIzVG1QX8MebLE-169">
          <mxGeometry x="0.6739" y="-2" relative="1" as="geometry">
            <mxPoint x="8" y="-183" as="offset" />
          </mxGeometry>
        </mxCell>
        <mxCell id="EqeIaTZIzVG1QX8MebLE-176" value="" style="edgeStyle=orthogonalEdgeStyle;rounded=0;orthogonalLoop=1;jettySize=auto;html=1;align=right;" edge="1" parent="WIyWlLk6GJQsqaUBKTNV-1" source="EqeIaTZIzVG1QX8MebLE-105" target="EqeIaTZIzVG1QX8MebLE-164">
          <mxGeometry relative="1" as="geometry">
            <mxPoint x="1420" y="932" as="sourcePoint" />
            <mxPoint x="1230" y="933" as="targetPoint" />
          </mxGeometry>
        </mxCell>
        <mxCell id="EqeIaTZIzVG1QX8MebLE-177" value="1" style="edgeLabel;html=1;align=center;verticalAlign=middle;resizable=0;points=[];labelBackgroundColor=none;" vertex="1" connectable="0" parent="EqeIaTZIzVG1QX8MebLE-176">
          <mxGeometry x="0.6739" y="-2" relative="1" as="geometry">
            <mxPoint x="8" as="offset" />
          </mxGeometry>
        </mxCell>
        <mxCell id="EqeIaTZIzVG1QX8MebLE-178" value="Cobro" style="swimlane;fontStyle=1;align=center;verticalAlign=top;childLayout=stackLayout;horizontal=1;startSize=26;horizontalStack=0;resizeParent=1;resizeParentMax=0;resizeLast=0;collapsible=1;marginBottom=0;whiteSpace=wrap;html=1;" vertex="1" parent="WIyWlLk6GJQsqaUBKTNV-1">
          <mxGeometry x="1250" y="320" width="160" height="216" as="geometry" />
        </mxCell>
        <mxCell id="EqeIaTZIzVG1QX8MebLE-179" value="+ revision: Revision" style="text;strokeColor=none;fillColor=none;align=left;verticalAlign=top;spacingLeft=4;spacingRight=4;overflow=hidden;rotatable=0;points=[[0,0.5],[1,0.5]];portConstraint=eastwest;whiteSpace=wrap;html=1;" vertex="1" parent="EqeIaTZIzVG1QX8MebLE-178">
          <mxGeometry y="26" width="160" height="26" as="geometry" />
        </mxCell>
        <mxCell id="EqeIaTZIzVG1QX8MebLE-182" value="+ importe: TipoVehiculo" style="text;strokeColor=none;fillColor=none;align=left;verticalAlign=top;spacingLeft=4;spacingRight=4;overflow=hidden;rotatable=0;points=[[0,0.5],[1,0.5]];portConstraint=eastwest;whiteSpace=wrap;html=1;" vertex="1" parent="EqeIaTZIzVG1QX8MebLE-178">
          <mxGeometry y="52" width="160" height="26" as="geometry" />
        </mxCell>
        <mxCell id="EqeIaTZIzVG1QX8MebLE-183" value="+ fecha" style="text;strokeColor=none;fillColor=none;align=left;verticalAlign=top;spacingLeft=4;spacingRight=4;overflow=hidden;rotatable=0;points=[[0,0.5],[1,0.5]];portConstraint=eastwest;whiteSpace=wrap;html=1;" vertex="1" parent="EqeIaTZIzVG1QX8MebLE-178">
          <mxGeometry y="78" width="160" height="26" as="geometry" />
        </mxCell>
        <mxCell id="EqeIaTZIzVG1QX8MebLE-180" value="" style="line;strokeWidth=1;fillColor=none;align=left;verticalAlign=middle;spacingTop=-1;spacingLeft=3;spacingRight=3;rotatable=0;labelPosition=right;points=[];portConstraint=eastwest;strokeColor=inherit;" vertex="1" parent="EqeIaTZIzVG1QX8MebLE-178">
          <mxGeometry y="104" width="160" height="8" as="geometry" />
        </mxCell>
        <mxCell id="EqeIaTZIzVG1QX8MebLE-181" value="+ crear()" style="text;strokeColor=none;fillColor=none;align=left;verticalAlign=top;spacingLeft=4;spacingRight=4;overflow=hidden;rotatable=0;points=[[0,0.5],[1,0.5]];portConstraint=eastwest;whiteSpace=wrap;html=1;" vertex="1" parent="EqeIaTZIzVG1QX8MebLE-178">
          <mxGeometry y="112" width="160" height="26" as="geometry" />
        </mxCell>
        <mxCell id="EqeIaTZIzVG1QX8MebLE-184" value="+ mostrar()" style="text;strokeColor=none;fillColor=none;align=left;verticalAlign=top;spacingLeft=4;spacingRight=4;overflow=hidden;rotatable=0;points=[[0,0.5],[1,0.5]];portConstraint=eastwest;whiteSpace=wrap;html=1;" vertex="1" parent="EqeIaTZIzVG1QX8MebLE-178">
          <mxGeometry y="138" width="160" height="26" as="geometry" />
        </mxCell>
        <mxCell id="EqeIaTZIzVG1QX8MebLE-186" value="+ conocerRevision()" style="text;strokeColor=none;fillColor=none;align=left;verticalAlign=top;spacingLeft=4;spacingRight=4;overflow=hidden;rotatable=0;points=[[0,0.5],[1,0.5]];portConstraint=eastwest;whiteSpace=wrap;html=1;" vertex="1" parent="EqeIaTZIzVG1QX8MebLE-178">
          <mxGeometry y="164" width="160" height="26" as="geometry" />
        </mxCell>
        <mxCell id="EqeIaTZIzVG1QX8MebLE-187" value="+ conocerTipoVehiculo()" style="text;strokeColor=none;fillColor=none;align=left;verticalAlign=top;spacingLeft=4;spacingRight=4;overflow=hidden;rotatable=0;points=[[0,0.5],[1,0.5]];portConstraint=eastwest;whiteSpace=wrap;html=1;" vertex="1" parent="EqeIaTZIzVG1QX8MebLE-178">
          <mxGeometry y="190" width="160" height="26" as="geometry" />
        </mxCell>
        <mxCell id="EqeIaTZIzVG1QX8MebLE-188" value="" style="edgeStyle=orthogonalEdgeStyle;rounded=0;orthogonalLoop=1;jettySize=auto;html=1;align=right;" edge="1" parent="WIyWlLk6GJQsqaUBKTNV-1" source="EqeIaTZIzVG1QX8MebLE-178" target="EqeIaTZIzVG1QX8MebLE-164">
          <mxGeometry relative="1" as="geometry">
            <mxPoint x="1460" y="820" as="sourcePoint" />
            <mxPoint x="1460" y="700" as="targetPoint" />
          </mxGeometry>
        </mxCell>
        <mxCell id="EqeIaTZIzVG1QX8MebLE-189" value="1" style="edgeLabel;html=1;align=center;verticalAlign=middle;resizable=0;points=[];labelBackgroundColor=none;" vertex="1" connectable="0" parent="EqeIaTZIzVG1QX8MebLE-188">
          <mxGeometry x="0.6739" y="-2" relative="1" as="geometry">
            <mxPoint x="8" as="offset" />
          </mxGeometry>
        </mxCell>
        <mxCell id="EqeIaTZIzVG1QX8MebLE-190" value="" style="edgeStyle=orthogonalEdgeStyle;rounded=0;orthogonalLoop=1;jettySize=auto;html=1;align=right;" edge="1" parent="WIyWlLk6GJQsqaUBKTNV-1" source="EqeIaTZIzVG1QX8MebLE-178" target="zkfFHV4jXpPFQw0GAbJ--0">
          <mxGeometry relative="1" as="geometry">
            <mxPoint x="1340" y="546" as="sourcePoint" />
            <mxPoint x="1340" y="706" as="targetPoint" />
          </mxGeometry>
        </mxCell>
        <mxCell id="EqeIaTZIzVG1QX8MebLE-191" value="1" style="edgeLabel;html=1;align=center;verticalAlign=middle;resizable=0;points=[];labelBackgroundColor=none;" vertex="1" connectable="0" parent="EqeIaTZIzVG1QX8MebLE-190">
          <mxGeometry x="0.6739" y="-2" relative="1" as="geometry">
            <mxPoint x="8" y="57" as="offset" />
          </mxGeometry>
        </mxCell>
        <mxCell id="EqeIaTZIzVG1QX8MebLE-192" value="" style="endArrow=open;html=1;endSize=12;startArrow=diamondThin;startSize=14;startFill=0;edgeStyle=orthogonalEdgeStyle;align=left;verticalAlign=bottom;rounded=0;exitX=0.5;exitY=0;exitDx=0;exitDy=0;" edge="1" parent="WIyWlLk6GJQsqaUBKTNV-1" source="EqeIaTZIzVG1QX8MebLE-157" target="zkfFHV4jXpPFQw0GAbJ--0">
          <mxGeometry x="-0.9436" y="-30" relative="1" as="geometry">
            <mxPoint x="1550" y="326" as="sourcePoint" />
            <mxPoint x="1710" y="326" as="targetPoint" />
            <Array as="points">
              <mxPoint x="1010" y="956" />
            </Array>
            <mxPoint as="offset" />
          </mxGeometry>
        </mxCell>
        <mxCell id="EqeIaTZIzVG1QX8MebLE-193" value="1" style="edgeLabel;html=1;align=center;verticalAlign=middle;resizable=0;points=[];labelBackgroundColor=none;" vertex="1" connectable="0" parent="WIyWlLk6GJQsqaUBKTNV-1">
          <mxGeometry x="1350" y="915.5348837209303" as="geometry">
            <mxPoint x="293" y="39" as="offset" />
          </mxGeometry>
        </mxCell>
        <mxCell id="EqeIaTZIzVG1QX8MebLE-194" value="1..*" style="edgeLabel;html=1;align=center;verticalAlign=middle;resizable=0;points=[];labelBackgroundColor=none;" vertex="1" connectable="0" parent="WIyWlLk6GJQsqaUBKTNV-1">
          <mxGeometry x="2000.0002846225966" y="886" as="geometry">
            <mxPoint x="-423" y="82" as="offset" />
          </mxGeometry>
        </mxCell>
        <mxCell id="EqeIaTZIzVG1QX8MebLE-195" value="" style="edgeStyle=orthogonalEdgeStyle;rounded=0;orthogonalLoop=1;jettySize=auto;html=1;align=right;entryX=0.999;entryY=0.205;entryDx=0;entryDy=0;entryPerimeter=0;" edge="1" parent="WIyWlLk6GJQsqaUBKTNV-1" source="EqeIaTZIzVG1QX8MebLE-31" target="EqeIaTZIzVG1QX8MebLE-161">
          <mxGeometry relative="1" as="geometry">
            <mxPoint x="1330" y="1466" as="sourcePoint" />
            <mxPoint x="1140" y="1467" as="targetPoint" />
            <Array as="points">
              <mxPoint x="2150" y="1576" />
              <mxPoint x="1160" y="1576" />
              <mxPoint x="1160" y="1133" />
            </Array>
          </mxGeometry>
        </mxCell>
        <mxCell id="EqeIaTZIzVG1QX8MebLE-196" value="1" style="edgeLabel;html=1;align=center;verticalAlign=middle;resizable=0;points=[];labelBackgroundColor=none;" vertex="1" connectable="0" parent="EqeIaTZIzVG1QX8MebLE-195">
          <mxGeometry x="0.6739" y="-2" relative="1" as="geometry">
            <mxPoint x="-52" y="-228" as="offset" />
          </mxGeometry>
        </mxCell>
      </root>
    </mxGraphModel>
  </diagram>
</mxfile>
